{"accessors" : [{"bufferView" : 0, "byteOffset" : 0, "componentType" : 5123, "count" : 1434, "type" : "SCALAR", "max" : [1433], "min" : [0]}, {"bufferView" : 1, "byteOffset" : 0, "componentType" : 5126, "count" : 1434, "type" : "VEC3", "max" : [1.2217717170715332, 1.165095329284668, 3.084787368774414], "min" : [-1.148742437362671, -1.1487441062927246, -1.0000001192092896], "name" : "POSITION"}, {"bufferView" : 1, "byteOffset" : 12, "componentType" : 5126, "count" : 1434, "type" : "VEC3", "max" : [1.0000044107437134, 1.0000044107437134, 1.0000044107437134], "min" : [-1.0000044107437134, -1.0000044107437134, -1.0000044107437134], "name" : "NORMAL"}, {"bufferView" : 1, "byteOffset" : 24, "componentType" : 5126, "count" : 1434, "type" : "VEC2", "max" : [0.9939420819282532, 0.9950140118598938], "min" : [0.007301792036741972, 0.012762725353240967], "name" : "TEXCOORD_0"}], "asset" : {"generator" : "Aspose.3D 24.1.0", "version" : "2.0"}, "buffers" : [{"uri" : "data:application/octet-stream;base64,", "byteLength" : 48764}], "bufferViews" : [{"buffer" : 0, "byteOffset" : 0, "byteLength" : 2868, "target" : 34963}, {"buffer" : 0, "byteOffset" : 2872, "byteLength" : 45888, "byteStride" : 32, "target" : 34962}], "cameras" : [{"perspective" : {"aspectRatio" : 1.777777777777778, "yfov" : 0.8575560450553893, "zfar" : 10000, "znear" : 10.000000149011612}, "type" : "perspective", "name" : "Camera"}], "materials" : [{"name" : "cottage_texture", "pbrMetallicRoughness" : {"baseColorFactor" : [0.8, 0.8, 0.8, 1], "metallicFactor" : 1, "roughnessFactor" : 1}, "emissiveFactor" : [0, 0, 0], "alphaMode" : "OPAQUE", "doubleSided" : false}], "meshes" : [{"primitives" : [{"attributes" : {"POSITION" : 1, "NORMAL" : 2, "TEXCOORD_0" : 3}, "indices" : 0, "material" : 0, "mode" : 4}], "name" : "Cube.002"}], "nodes" : [{"matrix" : [-1422.8291738505682, 0, 101.65808502143518, 0, 57.46848081344846, 6.088090438804E-05, 804.3416424872147, 0, -1.9328137744348766E-06, 359.22921752929585, -2.7052091580382483E-05, 0, -166.02523803710938, 365.640869140625, 2.4180448055267334, 1], "mesh" : 0, "name" : "Cube"}, {"camera" : 0, "matrix" : [-65.15583280329095, -44.52713576570855, -61.41703047373548, 0, -32.40134137821245, 89.53957451233616, -30.54208897441859, 0, 68.59205472129972, -1.0718647095919879E-05, -72.76763362396267, 0, 748.1131591796875, 534.3665161132812, 650.7639770507812, 1], "name" : "Camera"}], "scene" : 0, "scenes" : [{"nodes" : [0, 1]}]}